<svg width="18" height="18" viewBox="0 0 18 18" fill="none" xmlns="http://www.w3.org/2000/svg">
<path fill-rule="evenodd" clip-rule="evenodd" d="M6.68308 3.18102C4.4642 4.16868 2.91718 6.39283 2.91718 8.97831C2.91718 12.4812 5.75682 15.3208 9.25969 15.3208C12.7626 15.3208 15.6022 12.4812 15.6022 8.97831C15.6022 6.15082 13.752 3.75547 11.1963 2.93689L10.8767 3.94482C13.0048 4.62793 14.5451 6.62325 14.5451 8.97831C14.5451 11.8974 12.1788 14.2637 9.25969 14.2637C6.34063 14.2637 3.97426 11.8974 3.97426 8.97831C3.97426 7.19294 4.85949 5.61432 6.21497 4.65743L6.68308 3.18102Z" fill="#C5C5C5"/>
<path fill-rule="evenodd" clip-rule="evenodd" d="M6.08843 3.69289H2.91718V2.6358H6.61697L7.14552 3.16435V6.86415H6.08843V3.69289Z" fill="#C5C5C5"/>
</svg>
